# xmcd
#
# Track frame offsets: 
#        150
#        15318
#        33470
#        48023
#        63836
#        80732
#        96077
#        115081
#        131788
#        146794
#
# Disc length: 2170 seconds
#
# Revision: 0
# Processed by: cddbd v1.5.2PL0 Copyright (c) Steve Scherf et al.
# Submitted via: ExactAudioCopy v0.99pb4
#
DISCID=7f08780a
DTITLE=อร อรดี - เบอร์โทรเบอร์ห้องไม่ต้องมาขอ
DYEAR=2008
DGENRE=Country
TTITLE0=เบอร์โทรเบอร์ห้องไม่ต้องมาขอ
TTITLE1=นักการมอง
TTITLE2=ลดพุงหน่อยพี่
TTITLE3=มาสา'ีกว่าไม่มา
TTITLE4=น้ำยางกับน้ำตา
TTITLE5=อิ้วหน้าไม่อาย
TTITLE6=มะลิแรกแย้ม
TTITLE7=คิดจะหลอกให้บอกล่วงหน้า
TTITLE8=ล้อเล่นหรือเปล่า
TTITLE9=สาวใต้ใจชัวร์
EXTD=
EXTT0=
EXTT1=
EXTT2=
EXTT3=
EXTT4=
EXTT5=
EXTT6=
EXTT7=
EXTT8=
EXTT9=
PLAYORDER=
